<svg xmlns="http://www.w3.org/2000/svg" xmlns:xlink="http://www.w3.org/1999/xlink" viewBox="0,0,256,256" width="32px" height="32px" fill-rule="nonzero"><g fill="#10639d" fill-rule="nonzero" stroke="none" stroke-width="1" stroke-linecap="butt" stroke-linejoin="miter" stroke-miterlimit="10" stroke-dasharray="" stroke-dashoffset="0" font-family="none" font-weight="none" font-size="none" text-anchor="none" style="mix-blend-mode: normal"><g transform="scale(16,16)"><path d="M10.515,12.555l2.04,-2.039l1.808,2.434l-1.414,1.414z"></path><path d="M6.558,13h2.884l-0.442,3h-2z"></path><path d="M3.445,10.515l2.039,2.04l-2.434,1.808l-1.414,-1.414z"></path><path d="M3,6.558v2.884l-3,-0.442v-2z"></path><path d="M5.485,3.445l-2.04,2.039l-1.808,-2.434l1.414,-1.414z"></path><path d="M9.442,3h-2.884l0.442,-3h2z"></path><path d="M12.555,5.485l-2.039,-2.04l2.434,-1.808l1.414,1.414z"></path><path d="M13,9.442v-2.884l3,0.442v2z"></path><path d="M8,2c-3.314,0 -6,2.686 -6,6c0,3.314 2.686,6 6,6c3.314,0 6,-2.686 6,-6c0,-3.314 -2.686,-6 -6,-6zM8,10c-1.105,0 -2,-0.895 -2,-2c0,-1.105 0.895,-2 2,-2c1.105,0 2,0.895 2,2c0,1.105 -0.895,2 -2,2z"></path></g></g></svg>